<mxfile host="app.diagrams.net" modified="2022-05-11T09:02:01.221Z" agent="5.0 (Windows NT 10.0; Win64; x64) AppleWebKit/537.36 (KHTML, like Gecko) Chrome/100.0.4896.75 Safari/537.36" etag="VAh7NGlFKUQUFlO2jsi-" version="18.0.2" type="github">
  <diagram id="dltBm8MrrgHkwMkqr6Fd" name="第 1 页">
    <mxGraphModel dx="2249" dy="762" grid="1" gridSize="10" guides="1" tooltips="1" connect="1" arrows="1" fold="1" page="1" pageScale="1" pageWidth="827" pageHeight="1169" math="0" shadow="0">
      <root>
        <mxCell id="0" />
        <mxCell id="1" parent="0" />
        <mxCell id="JIBwMONcnYMNu98MbPIz-5" value="username&lt;br&gt;&lt;br&gt;password" style="edgeStyle=orthogonalEdgeStyle;rounded=0;orthogonalLoop=1;jettySize=auto;html=1;fontSize=16;labelBackgroundColor=none;" edge="1" parent="1" source="JIBwMONcnYMNu98MbPIz-2" target="JIBwMONcnYMNu98MbPIz-4">
          <mxGeometry relative="1" as="geometry" />
        </mxCell>
        <mxCell id="JIBwMONcnYMNu98MbPIz-11" value="请求API时携带Token" style="edgeStyle=orthogonalEdgeStyle;rounded=0;orthogonalLoop=1;jettySize=auto;html=1;labelBackgroundColor=none;fontSize=16;" edge="1" parent="1" source="JIBwMONcnYMNu98MbPIz-2" target="JIBwMONcnYMNu98MbPIz-10">
          <mxGeometry x="0.1711" y="-15" relative="1" as="geometry">
            <mxPoint x="530" y="535" as="targetPoint" />
            <Array as="points">
              <mxPoint x="170" y="425" />
            </Array>
            <mxPoint as="offset" />
          </mxGeometry>
        </mxCell>
        <mxCell id="JIBwMONcnYMNu98MbPIz-2" value="客户端" style="rounded=0;whiteSpace=wrap;html=1;fillColor=#f5f5f5;fontColor=#333333;strokeColor=#666666;fontSize=16;" vertex="1" parent="1">
          <mxGeometry x="120" y="150" width="110" height="70" as="geometry" />
        </mxCell>
        <mxCell id="JIBwMONcnYMNu98MbPIz-13" value="校验不通过" style="edgeStyle=orthogonalEdgeStyle;rounded=0;orthogonalLoop=1;jettySize=auto;html=1;labelBackgroundColor=none;fontSize=16;entryX=0.5;entryY=0;entryDx=0;entryDy=0;" edge="1" parent="1" source="JIBwMONcnYMNu98MbPIz-3" target="JIBwMONcnYMNu98MbPIz-2">
          <mxGeometry x="-0.8496" y="10" relative="1" as="geometry">
            <mxPoint x="-20" y="100" as="targetPoint" />
            <Array as="points">
              <mxPoint x="-20" y="550" />
              <mxPoint x="-20" y="100" />
              <mxPoint x="175" y="100" />
            </Array>
            <mxPoint as="offset" />
          </mxGeometry>
        </mxCell>
        <mxCell id="JIBwMONcnYMNu98MbPIz-17" value="返回错误码" style="edgeLabel;html=1;align=center;verticalAlign=middle;resizable=0;points=[];fontSize=16;labelBackgroundColor=none;" vertex="1" connectable="0" parent="JIBwMONcnYMNu98MbPIz-13">
          <mxGeometry x="0.6411" y="-1" relative="1" as="geometry">
            <mxPoint x="15" y="-11" as="offset" />
          </mxGeometry>
        </mxCell>
        <mxCell id="JIBwMONcnYMNu98MbPIz-15" style="edgeStyle=orthogonalEdgeStyle;rounded=0;orthogonalLoop=1;jettySize=auto;html=1;labelBackgroundColor=none;fontSize=16;entryX=0;entryY=0.5;entryDx=0;entryDy=0;" edge="1" parent="1" source="JIBwMONcnYMNu98MbPIz-3" target="JIBwMONcnYMNu98MbPIz-2">
          <mxGeometry relative="1" as="geometry">
            <mxPoint x="30" y="260" as="targetPoint" />
            <Array as="points">
              <mxPoint y="490" />
              <mxPoint y="185" />
            </Array>
          </mxGeometry>
        </mxCell>
        <mxCell id="JIBwMONcnYMNu98MbPIz-16" value="校验通过" style="edgeLabel;html=1;align=center;verticalAlign=middle;resizable=0;points=[];fontSize=16;labelBackgroundColor=none;" vertex="1" connectable="0" parent="JIBwMONcnYMNu98MbPIz-15">
          <mxGeometry x="-0.7849" y="2" relative="1" as="geometry">
            <mxPoint x="14" y="-12" as="offset" />
          </mxGeometry>
        </mxCell>
        <mxCell id="JIBwMONcnYMNu98MbPIz-18" value="返回请求数据" style="edgeLabel;html=1;align=center;verticalAlign=middle;resizable=0;points=[];fontSize=16;labelBackgroundColor=none;" vertex="1" connectable="0" parent="JIBwMONcnYMNu98MbPIz-15">
          <mxGeometry x="0.7918" y="3" relative="1" as="geometry">
            <mxPoint y="14" as="offset" />
          </mxGeometry>
        </mxCell>
        <mxCell id="JIBwMONcnYMNu98MbPIz-3" value="服务器端" style="rounded=0;whiteSpace=wrap;html=1;fillColor=#f5f5f5;fontColor=#333333;strokeColor=#666666;fontSize=16;" vertex="1" parent="1">
          <mxGeometry x="123" y="465" width="80" height="120" as="geometry" />
        </mxCell>
        <mxCell id="JIBwMONcnYMNu98MbPIz-7" value="校验成功生成token" style="edgeStyle=orthogonalEdgeStyle;rounded=0;orthogonalLoop=1;jettySize=auto;html=1;labelBackgroundColor=none;fontSize=16;" edge="1" parent="1" source="JIBwMONcnYMNu98MbPIz-4" target="JIBwMONcnYMNu98MbPIz-6">
          <mxGeometry relative="1" as="geometry" />
        </mxCell>
        <mxCell id="JIBwMONcnYMNu98MbPIz-4" value="MySQL" style="rounded=0;whiteSpace=wrap;html=1;fontSize=16;fillColor=#f5f5f5;fontColor=#333333;strokeColor=#666666;" vertex="1" parent="1">
          <mxGeometry x="590" y="155" width="120" height="60" as="geometry" />
        </mxCell>
        <mxCell id="JIBwMONcnYMNu98MbPIz-9" value="返回Token" style="edgeStyle=orthogonalEdgeStyle;rounded=0;orthogonalLoop=1;jettySize=auto;html=1;entryX=0.75;entryY=1;entryDx=0;entryDy=0;labelBackgroundColor=none;fontSize=16;" edge="1" parent="1" source="JIBwMONcnYMNu98MbPIz-6" target="JIBwMONcnYMNu98MbPIz-2">
          <mxGeometry x="0.2479" y="-10" relative="1" as="geometry">
            <mxPoint as="offset" />
          </mxGeometry>
        </mxCell>
        <mxCell id="JIBwMONcnYMNu98MbPIz-6" value="Token" style="rounded=0;whiteSpace=wrap;html=1;fontSize=16;fillColor=#f5f5f5;fontColor=#333333;strokeColor=#666666;" vertex="1" parent="1">
          <mxGeometry x="615" y="310" width="70" height="60" as="geometry" />
        </mxCell>
        <mxCell id="JIBwMONcnYMNu98MbPIz-12" value="校验Token" style="edgeStyle=orthogonalEdgeStyle;rounded=0;orthogonalLoop=1;jettySize=auto;html=1;entryX=1;entryY=0.5;entryDx=0;entryDy=0;labelBackgroundColor=none;fontSize=16;" edge="1" parent="1" source="JIBwMONcnYMNu98MbPIz-10" target="JIBwMONcnYMNu98MbPIz-3">
          <mxGeometry x="0.5273" y="-10" relative="1" as="geometry">
            <Array as="points">
              <mxPoint x="650" y="525" />
            </Array>
            <mxPoint as="offset" />
          </mxGeometry>
        </mxCell>
        <mxCell id="JIBwMONcnYMNu98MbPIz-10" value="过滤器" style="rounded=0;whiteSpace=wrap;html=1;fontSize=16;fillColor=#f5f5f5;fontColor=#333333;strokeColor=#666666;" vertex="1" parent="1">
          <mxGeometry x="617" y="390" width="70" height="70" as="geometry" />
        </mxCell>
      </root>
    </mxGraphModel>
  </diagram>
</mxfile>
